<?xml version="1.0" encoding="UTF-8" standalone="no"?>
<svg
   xmlns:dc="http://purl.org/dc/elements/1.1/"
   xmlns:cc="http://creativecommons.org/ns#"
   xmlns:rdf="http://www.w3.org/1999/02/22-rdf-syntax-ns#"
   xmlns:svg="http://www.w3.org/2000/svg"
   xmlns="http://www.w3.org/2000/svg"
   xmlns:sodipodi="http://sodipodi.sourceforge.net/DTD/sodipodi-0.dtd"
   xmlns:inkscape="http://www.inkscape.org/namespaces/inkscape"
   width="100"
   height="100"
   viewBox="0 0 26.458332 26.458334"
   version="1.1"
   id="svg8"
   inkscape:version="1.0.2 (e86c8708, 2021-01-15)"
   sodipodi:docname="sql.svg">
  <defs
     id="defs2" />
  <sodipodi:namedview
     id="base"
     pagecolor="#ffffff"
     bordercolor="#666666"
     borderopacity="1.0"
     inkscape:pageopacity="0.0"
     inkscape:pageshadow="2"
     inkscape:zoom="3.5159337"
     inkscape:cx="47.435957"
     inkscape:cy="67.380243"
     inkscape:document-units="px"
     inkscape:current-layer="layer1"
     inkscape:document-rotation="0"
     showgrid="false"
     units="px"
     inkscape:window-width="1440"
     inkscape:window-height="751"
     inkscape:window-x="0"
     inkscape:window-y="25"
     inkscape:window-maximized="0" />
  <metadata
     id="metadata5">
    <rdf:RDF>
      <cc:Work
         rdf:about="">
        <dc:format>image/svg+xml</dc:format>
        <dc:type
           rdf:resource="http://purl.org/dc/dcmitype/StillImage" />
        <dc:title />
      </cc:Work>
    </rdf:RDF>
  </metadata>
  <g
     inkscape:label="Layer 1"
     inkscape:groupmode="layer"
     id="layer1">
    <g
       id="g2118"
       transform="matrix(0.89450674,0,0,0.89473558,1.3955878,0.67176272)"
       style="stroke-width:0.59149804;stroke-miterlimit:4;stroke-dasharray:none;stroke:#3c3e6b;stroke-opacity:1">
      <path
         id="path2112"
         style="fill:#ffffff;fill-opacity:1;stroke:#3c3e6b;stroke-width:0.59149804;stroke-linecap:round;stroke-linejoin:round;stroke-miterlimit:4;stroke-dasharray:none;stroke-opacity:1"
         d="m 1.8607873,17.362765 v 6.699712 h 0.00208 a 11.368379,2.496522 0 0 0 -0.00208,0.04278 11.368379,2.496522 0 0 0 11.3683787,2.49722 11.368379,2.496522 0 0 0 11.36838,-2.49722 11.368379,2.496522 0 0 0 -0.0022,-0.04278 h 0.0022 v -6.699712 z" />
      <path
         id="path2110"
         style="fill:#ffffff;fill-opacity:1;stroke:#3c3e6b;stroke-width:0.59149804;stroke-linecap:round;stroke-linejoin:round;stroke-miterlimit:4;stroke-dasharray:none;stroke-opacity:1"
         d="m 1.8607873,10.663054 v 6.699711 h 0.00208 a 11.368379,2.496522 0 0 0 -0.00208,0.04278 11.368379,2.496522 0 0 0 11.3683787,2.497218 11.368379,2.496522 0 0 0 11.36838,-2.497218 11.368379,2.496522 0 0 0 -0.0022,-0.04278 h 0.0022 v -6.699711 z" />
      <path
         id="ellipse2100"
         style="fill:#ffffff;fill-opacity:1;stroke:#3c3e6b;stroke-width:0.59149804;stroke-linecap:round;stroke-linejoin:round;stroke-miterlimit:4;stroke-dasharray:none;stroke-opacity:1"
         d="m 1.8607873,3.9633431 v 6.6997109 h 0.0021 a 11.368379,2.496522 0 0 0 -0.0021,0.04278 11.368379,2.496522 0 0 0 11.3683787,2.497218 11.368379,2.496522 0 0 0 11.36838,-2.497218 11.368379,2.496522 0 0 0 -0.0022,-0.04278 h 0.0022 V 3.9633431 Z" />
      <path
         id="path2107"
         style="fill:#ffffff;fill-opacity:1;stroke:#3c3e6b;stroke-width:0.59149804;stroke-linecap:round;stroke-linejoin:round;stroke-miterlimit:4;stroke-dasharray:none;stroke-opacity:1"
         d="M 24.597546,3.9635757 A 11.368379,2.496522 0 0 1 13.229166,6.4600979 11.368379,2.496522 0 0 1 1.8607873,3.9635757 11.368379,2.496522 0 0 1 13.229166,1.4670534 11.368379,2.496522 0 0 1 24.597546,3.9635757 Z" />
    </g>
  </g>
</svg>
