<?xml version="1.0" encoding="UTF-8" standalone="no"?>
<svg
   xmlns:dc="http://purl.org/dc/elements/1.1/"
   xmlns:cc="http://creativecommons.org/ns#"
   xmlns:rdf="http://www.w3.org/1999/02/22-rdf-syntax-ns#"
   xmlns:svg="http://www.w3.org/2000/svg"
   xmlns="http://www.w3.org/2000/svg"
   xmlns:sodipodi="http://sodipodi.sourceforge.net/DTD/sodipodi-0.dtd"
   xmlns:inkscape="http://www.inkscape.org/namespaces/inkscape"
   viewBox="0 0 228.66 19.999999"
   version="1.1"
   id="svg863"
   sodipodi:docname="navbar-logo.svg"
   inkscape:version="1.0.2 (e86c8708, 2021-01-15)"
   width="228.66"
   height="20">
  <metadata
     id="metadata869">
    <rdf:RDF>
      <cc:Work
         rdf:about="">
        <dc:format>image/svg+xml</dc:format>
        <dc:type
           rdf:resource="http://purl.org/dc/dcmitype/StillImage" />
        <dc:title></dc:title>
      </cc:Work>
    </rdf:RDF>
  </metadata>
  <defs
     id="defs867">
    <filter
       inkscape:collect="always"
       style="color-interpolation-filters:sRGB"
       id="filter2899"
       x="-0.01421977"
       width="1.0284395"
       y="-0.21065643"
       height="1.4213129">
      <feGaussianBlur
         inkscape:collect="always"
         stdDeviation="1.3185313"
         id="feGaussianBlur2901" />
    </filter>
  </defs>
  <sodipodi:namedview
     pagecolor="#ffffff"
     bordercolor="#666666"
     borderopacity="1"
     objecttolerance="10"
     gridtolerance="10"
     guidetolerance="10"
     inkscape:pageopacity="0"
     inkscape:pageshadow="2"
     inkscape:window-width="1440"
     inkscape:window-height="751"
     id="namedview865"
     showgrid="false"
     inkscape:zoom="3.7494988"
     inkscape:cx="116.3651"
     inkscape:cy="15.539465"
     inkscape:window-x="0"
     inkscape:window-y="25"
     inkscape:window-maximized="1"
     inkscape:current-layer="svg863" />
  <style
     id="style833">.cls-1{fill:#fed136;}</style>
  <g
     aria-label="Esmeralda Gallardo"
     id="g2753"
     style="font-style:normal;font-variant:normal;font-weight:bold;font-stretch:normal;font-size:21px;line-height:0px;font-family:monospace;-inkscape-font-specification:'monospace Bold';fill:#97f45b;fill-opacity:1;stroke:none;filter:url(#filter2899)"
     transform="translate(0,-9.5400014)">
    <path
       d="M 10.616867,26.774132 H 3.0597382 V 12.30587 h 7.4956058 v 1.466309 H 4.7413788 v 4.480957 h 5.5883792 v 1.466308 H 4.7413788 v 5.588379 h 5.8754882 z"
       id="path2719" />
    <path
       d="m 22.347336,17.617393 q -1.343262,-0.440917 -2.532715,-0.440917 -1.302246,0 -2.061035,0.440917 -0.758789,0.430665 -0.758789,1.158692 0,0.461426 0.348633,0.810058 0.348632,0.338379 1.394531,0.635743 l 1.527832,0.440918 q 1.056152,0.297363 1.722656,0.717773 0.666504,0.410156 0.994629,1.004883 0.338379,0.584473 0.338379,1.363769 0,1.527832 -1.281738,2.419922 -1.281739,0.881836 -3.260743,0.881836 -1.96875,0 -3.250488,-0.594726 l 0.307617,-1.384278 q 1.343262,0.635743 2.881348,0.635743 1.333008,0 2.163574,-0.492188 0.840821,-0.502441 0.840821,-1.322754 0,-0.553711 -0.420411,-0.984375 -0.410156,-0.440918 -1.948242,-0.912598 -1.240722,-0.379394 -1.825195,-0.563964 -0.584473,-0.194825 -1.086914,-0.563965 -0.502442,-0.369141 -0.769043,-0.881836 -0.256348,-0.512695 -0.256348,-1.148438 0,-1.384277 1.209961,-2.194336 1.209961,-0.810058 3.209473,-0.810058 1.291992,0 2.871094,0.440918 z"
       id="path2721" />
    <path
       d="m 36.897629,26.774132 h -1.59961 V 19.76046 q 0,-2.542969 -0.943359,-2.542969 -0.481934,0 -1.066406,0.881836 -0.574219,0.871582 -0.574219,0.963867 v 7.710938 H 31.12468 V 19.76046 q 0,-2.542969 -0.953614,-2.542969 -0.471679,0 -1.056152,0.881836 -0.574219,0.871582 -0.574219,0.963867 v 7.710938 H 26.941086 V 16.089561 h 1.538086 v 1.609864 q 0.451172,-0.851074 1.066406,-1.353516 0.625488,-0.512695 1.240723,-0.512695 0.645996,0 1.158691,0.512695 0.512695,0.502442 0.70752,1.353516 0.451171,-0.851074 1.07666,-1.353516 0.625488,-0.512695 1.230469,-0.512695 1.937988,0 1.937988,3.46582 z"
       id="path2723" />
    <path
       d="m 48.966476,21.483116 h -7.331543 q 0,1.814942 1.045899,2.994141 1.056152,1.179199 2.583984,1.179199 1.456055,0 3.004395,-0.522949 l 0.276855,1.281738 q -1.415039,0.635742 -3.301758,0.635742 -2.378906,0 -3.83496,-1.527832 -1.456055,-1.527832 -1.456055,-4.12207 0,-2.542969 1.302246,-4.050293 1.3125,-1.517578 3.383789,-1.517578 1.845703,0 3.086426,1.404785 1.240722,1.404785 1.240722,3.742676 z M 47.223312,20.18087 q 0,-1.250977 -0.779296,-2.102051 -0.779297,-0.861328 -1.743165,-0.861328 -1.240722,0 -2.061035,0.820313 -0.810058,0.820312 -0.902343,2.143066 z"
       id="path2725" />
    <path
       d="m 61.404465,16.376671 -0.645996,1.538086 q -1.056153,-0.461426 -1.825196,-0.461426 -0.707519,0 -1.384277,0.410156 -0.676758,0.399903 -1.250977,1.158692 -0.563964,0.748535 -0.563964,0.84082 v 6.911133 H 54.144699 V 16.089561 h 1.589356 v 2.163575 q 1.281738,-2.419922 3.322265,-2.419922 1.209961,0 2.348145,0.543457 z"
       id="path2727" />
    <path
       d="m 74.098801,26.774132 h -1.589356 q -0.194824,-0.645996 -0.194824,-1.722656 -1.36377,1.999511 -3.711914,1.999511 -1.189453,0 -2.102051,-0.84082 -0.902344,-0.851074 -0.902344,-2.184082 0,-0.789551 0.317871,-1.394531 0.317872,-0.604981 0.933106,-1.015137 0.615234,-0.42041 1.49707,-0.65625 0.881836,-0.246094 2.091797,-0.338379 l 1.794434,-0.143555 v -0.512695 q 0,-2.748047 -2.563477,-2.748047 -0.60498,0 -1.538086,0.266602 -0.922851,0.256347 -1.589355,0.615234 l -0.42041,-1.148437 q 2.184082,-1.117676 4.060546,-1.117676 3.650391,0 3.650391,3.865722 v 4.59375 q 0,1.394532 0.266602,2.481446 z M 72.23259,23.605675 v -1.937989 q -2.163574,0.194825 -2.973633,0.369141 -0.799805,0.164063 -1.394531,0.625488 -0.584473,0.461426 -0.584473,1.250977 0,0.717773 0.502441,1.158691 0.502442,0.440918 1.281739,0.440918 0.851074,0 1.691894,-0.502441 0.840821,-0.512695 1.476563,-1.404785 z"
       id="path2729" />
    <path
       d="M 85.644699,26.774132 H 81.276535 V 13.690147 H 78.487473 V 12.30587 h 4.388671 v 13.083984 h 2.768555 z"
       id="path2731" />
    <path
       d="m 98.974777,26.774132 h -1.599609 v -1.538086 q -0.492188,0.789551 -1.415039,1.302246 -0.912598,0.512695 -1.927735,0.512695 -1.835449,0 -2.901855,-1.630371 -1.066406,-1.640625 -1.066406,-4.152832 0,-2.348144 1.107422,-3.88623 1.117675,-1.54834 2.953125,-1.54834 2.020019,0 3.250488,1.640625 V 12.30587 h 1.599609 z m -1.599609,-3.270996 v -4.439942 q -1.148438,-1.845703 -2.768555,-1.845703 -1.322754,0 -2.091797,1.179199 -0.769043,1.168946 -0.769043,2.963379 0,1.845703 0.717774,3.055664 0.728027,1.199707 1.989258,1.199707 0.60498,0 1.220214,-0.328125 0.615235,-0.328125 1.158692,-0.984375 0.543457,-0.65625 0.543457,-0.799804 z"
       id="path2733" />
    <path
       d="m 111.87419,26.774132 h -1.58935 q -0.19483,-0.645996 -0.19483,-1.722656 -1.36377,1.999511 -3.71191,1.999511 -1.18946,0 -2.10205,-0.84082 -0.90235,-0.851074 -0.90235,-2.184082 0,-0.789551 0.31787,-1.394531 0.31788,-0.604981 0.93311,-1.015137 0.61523,-0.42041 1.49707,-0.65625 0.88184,-0.246094 2.0918,-0.338379 l 1.79443,-0.143555 v -0.512695 q 0,-2.748047 -2.56348,-2.748047 -0.60498,0 -1.53808,0.266602 -0.92285,0.256347 -1.58936,0.615234 l -0.42041,-1.148437 q 2.18408,-1.117676 4.06055,-1.117676 3.65039,0 3.65039,3.865722 v 4.59375 q 0,1.394532 0.2666,2.481446 z m -1.86621,-3.168457 v -1.937989 q -2.16357,0.194825 -2.97363,0.369141 -0.79981,0.164063 -1.39453,0.625488 -0.58448,0.461426 -0.58448,1.250977 0,0.717773 0.50245,1.158691 0.50244,0.440918 1.28173,0.440918 0.85108,0 1.6919,-0.502441 0.84082,-0.512695 1.47656,-1.404785 z"
       id="path2735" />
    <path
       d="m 137.31413,25.748741 q -1.77392,1.302246 -3.92724,1.302246 -2.81983,0 -4.27588,-1.907226 -1.45606,-1.917481 -1.45606,-5.598633 0,-3.558106 1.40479,-5.53711 1.41504,-1.979003 4.32715,-1.979003 1.0459,0 2.07129,0.266601 1.02539,0.266602 1.65087,0.70752 l -0.55371,1.322754 q -1.4458,-0.820313 -3.16845,-0.820313 -1.98926,0 -2.97364,1.456055 -0.97412,1.456054 -0.97412,4.583496 0,6.029297 3.94776,6.029297 1.48681,0 2.2456,-0.625489 V 21.380577 H 133.028 v -1.456055 h 4.28613 z"
       id="path2737" />
    <path
       d="m 149.64958,26.774132 h -1.58935 q -0.19483,-0.645996 -0.19483,-1.722656 -1.36377,1.999511 -3.71191,1.999511 -1.18945,0 -2.10205,-0.84082 -0.90235,-0.851074 -0.90235,-2.184082 0,-0.789551 0.31787,-1.394531 0.31788,-0.604981 0.93311,-1.015137 0.61523,-0.42041 1.49707,-0.65625 0.88184,-0.246094 2.0918,-0.338379 l 1.79443,-0.143555 v -0.512695 q 0,-2.748047 -2.56348,-2.748047 -0.60498,0 -1.53808,0.266602 -0.92285,0.256347 -1.58936,0.615234 l -0.42041,-1.148437 q 2.18408,-1.117676 4.06055,-1.117676 3.65039,0 3.65039,3.865722 v 4.59375 q 0,1.394532 0.2666,2.481446 z m -1.86621,-3.168457 v -1.937989 q -2.16357,0.194825 -2.97363,0.369141 -0.79981,0.164063 -1.39453,0.625488 -0.58448,0.461426 -0.58448,1.250977 0,0.717773 0.50245,1.158691 0.50244,0.440918 1.28173,0.440918 0.85108,0 1.6919,-0.502441 0.84082,-0.512695 1.47656,-1.404785 z"
       id="path2739" />
    <path
       d="m 161.19548,26.774132 h -4.36816 V 13.690147 h -2.78907 V 12.30587 h 4.38868 v 13.083984 h 2.76855 z"
       id="path2741" />
    <path
       d="m 173.78728,26.774132 h -4.36817 V 13.690147 h -2.78906 V 12.30587 h 4.38867 v 13.083984 h 2.76856 z"
       id="path2743" />
    <path
       d="m 187.42497,26.774132 h -1.58935 q -0.19483,-0.645996 -0.19483,-1.722656 -1.36377,1.999511 -3.71191,1.999511 -1.18945,0 -2.10205,-0.84082 -0.90235,-0.851074 -0.90235,-2.184082 0,-0.789551 0.31788,-1.394531 0.31787,-0.604981 0.9331,-1.015137 0.61524,-0.42041 1.49707,-0.65625 0.88184,-0.246094 2.0918,-0.338379 l 1.79443,-0.143555 v -0.512695 q 0,-2.748047 -2.56347,-2.748047 -0.60499,0 -1.53809,0.266602 -0.92285,0.256347 -1.58936,0.615234 l -0.42041,-1.148437 q 2.18409,-1.117676 4.06055,-1.117676 3.65039,0 3.65039,3.865722 v 4.59375 q 0,1.394532 0.2666,2.481446 z m -1.86621,-3.168457 v -1.937989 q -2.16357,0.194825 -2.97363,0.369141 -0.79981,0.164063 -1.39453,0.625488 -0.58448,0.461426 -0.58448,1.250977 0,0.717773 0.50245,1.158691 0.50244,0.440918 1.28173,0.440918 0.85108,0 1.6919,-0.502441 0.84082,-0.512695 1.47656,-1.404785 z"
       id="path2745" />
    <path
       d="m 199.91423,16.376671 -0.646,1.538086 q -1.05615,-0.461426 -1.82519,-0.461426 -0.70752,0 -1.38428,0.410156 -0.67676,0.399903 -1.25097,1.158692 -0.56397,0.748535 -0.56397,0.84082 v 6.911133 h -1.58936 V 16.089561 h 1.58936 v 2.163575 q 1.28174,-2.419922 3.32227,-2.419922 1.20996,0 2.34814,0.543457 z"
       id="path2747" />
    <path
       d="m 212.30095,26.774132 h -1.59961 v -1.538086 q -0.49219,0.789551 -1.41504,1.302246 -0.9126,0.512695 -1.92773,0.512695 -1.83545,0 -2.90186,-1.630371 -1.06641,-1.640625 -1.06641,-4.152832 0,-2.348144 1.10743,-3.88623 1.11767,-1.54834 2.95312,-1.54834 2.02002,0 3.25049,1.640625 V 12.30587 h 1.59961 z m -1.59961,-3.270996 v -4.439942 q -1.14844,-1.845703 -2.76855,-1.845703 -1.32276,0 -2.0918,1.179199 -0.76904,1.168946 -0.76904,2.963379 0,1.845703 0.71777,3.055664 0.72803,1.199707 1.98926,1.199707 0.60498,0 1.22021,-0.328125 0.61524,-0.328125 1.15869,-0.984375 0.54346,-0.65625 0.54346,-0.799804 z"
       id="path2749" />
    <path
       d="m 220.79118,15.833214 q 2.20459,0 3.50684,1.538086 1.30225,1.538086 1.30225,4.050293 0,2.532715 -1.30225,4.081054 -1.30225,1.54834 -3.50684,1.54834 -2.21484,0 -3.51709,-1.538086 -1.29199,-1.54834 -1.29199,-4.091308 0,-2.522461 1.30225,-4.050293 1.30224,-1.538086 3.50683,-1.538086 z m 0,9.823242 q 1.45606,0 2.29688,-1.230469 0.84082,-1.230469 0.84082,-2.983886 0,-1.845704 -0.83057,-3.035157 -0.83056,-1.189453 -2.30713,-1.189453 -1.48681,0 -2.30713,1.179199 -0.82031,1.168946 -0.82031,3.045411 0,1.784179 0.83057,3.004394 0.83056,1.209961 2.29687,1.209961 z"
       id="path2751" />
  </g>
  <g
     aria-label="Esmeralda Gallardo"
     id="text873"
     style="font-style:normal;font-variant:normal;font-weight:bold;font-stretch:normal;font-size:21px;line-height:0px;font-family:monospace;-inkscape-font-specification:'monospace Bold';fill:#97f45b;fill-opacity:1;stroke:none"
     transform="translate(-2.2689453e-6,-9.540001)">
    <path
       d="M 10.616867,26.774132 H 3.0597382 V 12.30587 h 7.4956058 v 1.466309 H 4.7413788 v 4.480957 h 5.5883792 v 1.466308 H 4.7413788 v 5.588379 h 5.8754882 z"
       id="path2684" />
    <path
       d="m 22.347336,17.617393 q -1.343262,-0.440917 -2.532715,-0.440917 -1.302246,0 -2.061035,0.440917 -0.758789,0.430665 -0.758789,1.158692 0,0.461426 0.348633,0.810058 0.348632,0.338379 1.394531,0.635743 l 1.527832,0.440918 q 1.056152,0.297363 1.722656,0.717773 0.666504,0.410156 0.994629,1.004883 0.338379,0.584473 0.338379,1.363769 0,1.527832 -1.281738,2.419922 -1.281739,0.881836 -3.260743,0.881836 -1.96875,0 -3.250488,-0.594726 l 0.307617,-1.384278 q 1.343262,0.635743 2.881348,0.635743 1.333008,0 2.163574,-0.492188 0.840821,-0.502441 0.840821,-1.322754 0,-0.553711 -0.420411,-0.984375 -0.410156,-0.440918 -1.948242,-0.912598 -1.240722,-0.379394 -1.825195,-0.563964 -0.584473,-0.194825 -1.086914,-0.563965 -0.502442,-0.369141 -0.769043,-0.881836 -0.256348,-0.512695 -0.256348,-1.148438 0,-1.384277 1.209961,-2.194336 1.209961,-0.810058 3.209473,-0.810058 1.291992,0 2.871094,0.440918 z"
       id="path2686" />
    <path
       d="m 36.897629,26.774132 h -1.59961 V 19.76046 q 0,-2.542969 -0.943359,-2.542969 -0.481934,0 -1.066406,0.881836 -0.574219,0.871582 -0.574219,0.963867 v 7.710938 H 31.12468 V 19.76046 q 0,-2.542969 -0.953614,-2.542969 -0.471679,0 -1.056152,0.881836 -0.574219,0.871582 -0.574219,0.963867 v 7.710938 H 26.941086 V 16.089561 h 1.538086 v 1.609864 q 0.451172,-0.851074 1.066406,-1.353516 0.625488,-0.512695 1.240723,-0.512695 0.645996,0 1.158691,0.512695 0.512695,0.502442 0.70752,1.353516 0.451171,-0.851074 1.07666,-1.353516 0.625488,-0.512695 1.230469,-0.512695 1.937988,0 1.937988,3.46582 z"
       id="path2688" />
    <path
       d="m 48.966476,21.483116 h -7.331543 q 0,1.814942 1.045899,2.994141 1.056152,1.179199 2.583984,1.179199 1.456055,0 3.004395,-0.522949 l 0.276855,1.281738 q -1.415039,0.635742 -3.301758,0.635742 -2.378906,0 -3.83496,-1.527832 -1.456055,-1.527832 -1.456055,-4.12207 0,-2.542969 1.302246,-4.050293 1.3125,-1.517578 3.383789,-1.517578 1.845703,0 3.086426,1.404785 1.240722,1.404785 1.240722,3.742676 z M 47.223312,20.18087 q 0,-1.250977 -0.779296,-2.102051 -0.779297,-0.861328 -1.743165,-0.861328 -1.240722,0 -2.061035,0.820313 -0.810058,0.820312 -0.902343,2.143066 z"
       id="path2690" />
    <path
       d="m 61.404465,16.376671 -0.645996,1.538086 q -1.056153,-0.461426 -1.825196,-0.461426 -0.707519,0 -1.384277,0.410156 -0.676758,0.399903 -1.250977,1.158692 -0.563964,0.748535 -0.563964,0.84082 v 6.911133 H 54.144699 V 16.089561 h 1.589356 v 2.163575 q 1.281738,-2.419922 3.322265,-2.419922 1.209961,0 2.348145,0.543457 z"
       id="path2692" />
    <path
       d="m 74.098801,26.774132 h -1.589356 q -0.194824,-0.645996 -0.194824,-1.722656 -1.36377,1.999511 -3.711914,1.999511 -1.189453,0 -2.102051,-0.84082 -0.902344,-0.851074 -0.902344,-2.184082 0,-0.789551 0.317871,-1.394531 0.317872,-0.604981 0.933106,-1.015137 0.615234,-0.42041 1.49707,-0.65625 0.881836,-0.246094 2.091797,-0.338379 l 1.794434,-0.143555 v -0.512695 q 0,-2.748047 -2.563477,-2.748047 -0.60498,0 -1.538086,0.266602 -0.922851,0.256347 -1.589355,0.615234 l -0.42041,-1.148437 q 2.184082,-1.117676 4.060546,-1.117676 3.650391,0 3.650391,3.865722 v 4.59375 q 0,1.394532 0.266602,2.481446 z M 72.23259,23.605675 v -1.937989 q -2.163574,0.194825 -2.973633,0.369141 -0.799805,0.164063 -1.394531,0.625488 -0.584473,0.461426 -0.584473,1.250977 0,0.717773 0.502441,1.158691 0.502442,0.440918 1.281739,0.440918 0.851074,0 1.691894,-0.502441 0.840821,-0.512695 1.476563,-1.404785 z"
       id="path2694" />
    <path
       d="M 85.644699,26.774132 H 81.276535 V 13.690147 H 78.487473 V 12.30587 h 4.388671 v 13.083984 h 2.768555 z"
       id="path2696" />
    <path
       d="m 98.974777,26.774132 h -1.599609 v -1.538086 q -0.492188,0.789551 -1.415039,1.302246 -0.912598,0.512695 -1.927735,0.512695 -1.835449,0 -2.901855,-1.630371 -1.066406,-1.640625 -1.066406,-4.152832 0,-2.348144 1.107422,-3.88623 1.117675,-1.54834 2.953125,-1.54834 2.020019,0 3.250488,1.640625 V 12.30587 h 1.599609 z m -1.599609,-3.270996 v -4.439942 q -1.148438,-1.845703 -2.768555,-1.845703 -1.322754,0 -2.091797,1.179199 -0.769043,1.168946 -0.769043,2.963379 0,1.845703 0.717774,3.055664 0.728027,1.199707 1.989258,1.199707 0.60498,0 1.220214,-0.328125 0.615235,-0.328125 1.158692,-0.984375 0.543457,-0.65625 0.543457,-0.799804 z"
       id="path2698" />
    <path
       d="m 111.87419,26.774132 h -1.58935 q -0.19483,-0.645996 -0.19483,-1.722656 -1.36377,1.999511 -3.71191,1.999511 -1.18946,0 -2.10205,-0.84082 -0.90235,-0.851074 -0.90235,-2.184082 0,-0.789551 0.31787,-1.394531 0.31788,-0.604981 0.93311,-1.015137 0.61523,-0.42041 1.49707,-0.65625 0.88184,-0.246094 2.0918,-0.338379 l 1.79443,-0.143555 v -0.512695 q 0,-2.748047 -2.56348,-2.748047 -0.60498,0 -1.53808,0.266602 -0.92285,0.256347 -1.58936,0.615234 l -0.42041,-1.148437 q 2.18408,-1.117676 4.06055,-1.117676 3.65039,0 3.65039,3.865722 v 4.59375 q 0,1.394532 0.2666,2.481446 z m -1.86621,-3.168457 v -1.937989 q -2.16357,0.194825 -2.97363,0.369141 -0.79981,0.164063 -1.39453,0.625488 -0.58448,0.461426 -0.58448,1.250977 0,0.717773 0.50245,1.158691 0.50244,0.440918 1.28173,0.440918 0.85108,0 1.6919,-0.502441 0.84082,-0.512695 1.47656,-1.404785 z"
       id="path2700" />
    <path
       d="m 137.31413,25.748741 q -1.77392,1.302246 -3.92724,1.302246 -2.81983,0 -4.27588,-1.907226 -1.45606,-1.917481 -1.45606,-5.598633 0,-3.558106 1.40479,-5.53711 1.41504,-1.979003 4.32715,-1.979003 1.0459,0 2.07129,0.266601 1.02539,0.266602 1.65087,0.70752 l -0.55371,1.322754 q -1.4458,-0.820313 -3.16845,-0.820313 -1.98926,0 -2.97364,1.456055 -0.97412,1.456054 -0.97412,4.583496 0,6.029297 3.94776,6.029297 1.48681,0 2.2456,-0.625489 V 21.380577 H 133.028 v -1.456055 h 4.28613 z"
       id="path2702" />
    <path
       d="m 149.64958,26.774132 h -1.58935 q -0.19483,-0.645996 -0.19483,-1.722656 -1.36377,1.999511 -3.71191,1.999511 -1.18945,0 -2.10205,-0.84082 -0.90235,-0.851074 -0.90235,-2.184082 0,-0.789551 0.31787,-1.394531 0.31788,-0.604981 0.93311,-1.015137 0.61523,-0.42041 1.49707,-0.65625 0.88184,-0.246094 2.0918,-0.338379 l 1.79443,-0.143555 v -0.512695 q 0,-2.748047 -2.56348,-2.748047 -0.60498,0 -1.53808,0.266602 -0.92285,0.256347 -1.58936,0.615234 l -0.42041,-1.148437 q 2.18408,-1.117676 4.06055,-1.117676 3.65039,0 3.65039,3.865722 v 4.59375 q 0,1.394532 0.2666,2.481446 z m -1.86621,-3.168457 v -1.937989 q -2.16357,0.194825 -2.97363,0.369141 -0.79981,0.164063 -1.39453,0.625488 -0.58448,0.461426 -0.58448,1.250977 0,0.717773 0.50245,1.158691 0.50244,0.440918 1.28173,0.440918 0.85108,0 1.6919,-0.502441 0.84082,-0.512695 1.47656,-1.404785 z"
       id="path2704" />
    <path
       d="m 161.19548,26.774132 h -4.36816 V 13.690147 h -2.78907 V 12.30587 h 4.38868 v 13.083984 h 2.76855 z"
       id="path2706" />
    <path
       d="m 173.78728,26.774132 h -4.36817 V 13.690147 h -2.78906 V 12.30587 h 4.38867 v 13.083984 h 2.76856 z"
       id="path2708" />
    <path
       d="m 187.42497,26.774132 h -1.58935 q -0.19483,-0.645996 -0.19483,-1.722656 -1.36377,1.999511 -3.71191,1.999511 -1.18945,0 -2.10205,-0.84082 -0.90235,-0.851074 -0.90235,-2.184082 0,-0.789551 0.31788,-1.394531 0.31787,-0.604981 0.9331,-1.015137 0.61524,-0.42041 1.49707,-0.65625 0.88184,-0.246094 2.0918,-0.338379 l 1.79443,-0.143555 v -0.512695 q 0,-2.748047 -2.56347,-2.748047 -0.60499,0 -1.53809,0.266602 -0.92285,0.256347 -1.58936,0.615234 l -0.42041,-1.148437 q 2.18409,-1.117676 4.06055,-1.117676 3.65039,0 3.65039,3.865722 v 4.59375 q 0,1.394532 0.2666,2.481446 z m -1.86621,-3.168457 v -1.937989 q -2.16357,0.194825 -2.97363,0.369141 -0.79981,0.164063 -1.39453,0.625488 -0.58448,0.461426 -0.58448,1.250977 0,0.717773 0.50245,1.158691 0.50244,0.440918 1.28173,0.440918 0.85108,0 1.6919,-0.502441 0.84082,-0.512695 1.47656,-1.404785 z"
       id="path2710" />
    <path
       d="m 199.91423,16.376671 -0.646,1.538086 q -1.05615,-0.461426 -1.82519,-0.461426 -0.70752,0 -1.38428,0.410156 -0.67676,0.399903 -1.25097,1.158692 -0.56397,0.748535 -0.56397,0.84082 v 6.911133 h -1.58936 V 16.089561 h 1.58936 v 2.163575 q 1.28174,-2.419922 3.32227,-2.419922 1.20996,0 2.34814,0.543457 z"
       id="path2712" />
    <path
       d="m 212.30095,26.774132 h -1.59961 v -1.538086 q -0.49219,0.789551 -1.41504,1.302246 -0.9126,0.512695 -1.92773,0.512695 -1.83545,0 -2.90186,-1.630371 -1.06641,-1.640625 -1.06641,-4.152832 0,-2.348144 1.10743,-3.88623 1.11767,-1.54834 2.95312,-1.54834 2.02002,0 3.25049,1.640625 V 12.30587 h 1.59961 z m -1.59961,-3.270996 v -4.439942 q -1.14844,-1.845703 -2.76855,-1.845703 -1.32276,0 -2.0918,1.179199 -0.76904,1.168946 -0.76904,2.963379 0,1.845703 0.71777,3.055664 0.72803,1.199707 1.98926,1.199707 0.60498,0 1.22021,-0.328125 0.61524,-0.328125 1.15869,-0.984375 0.54346,-0.65625 0.54346,-0.799804 z"
       id="path2714" />
    <path
       d="m 220.79118,15.833214 q 2.20459,0 3.50684,1.538086 1.30225,1.538086 1.30225,4.050293 0,2.532715 -1.30225,4.081054 -1.30225,1.54834 -3.50684,1.54834 -2.21484,0 -3.51709,-1.538086 -1.29199,-1.54834 -1.29199,-4.091308 0,-2.522461 1.30225,-4.050293 1.30224,-1.538086 3.50683,-1.538086 z m 0,9.823242 q 1.45606,0 2.29688,-1.230469 0.84082,-1.230469 0.84082,-2.983886 0,-1.845704 -0.83057,-3.035157 -0.83056,-1.189453 -2.30713,-1.189453 -1.48681,0 -2.30713,1.179199 -0.82031,1.168946 -0.82031,3.045411 0,1.784179 0.83057,3.004394 0.83056,1.209961 2.29687,1.209961 z"
       id="path2716" />
  </g>
</svg>
