<?xml version="1.0" encoding="UTF-8" standalone="no"?>
<svg
   xmlns:dc="http://purl.org/dc/elements/1.1/"
   xmlns:cc="http://creativecommons.org/ns#"
   xmlns:rdf="http://www.w3.org/1999/02/22-rdf-syntax-ns#"
   xmlns:svg="http://www.w3.org/2000/svg"
   xmlns="http://www.w3.org/2000/svg"
   xmlns:sodipodi="http://sodipodi.sourceforge.net/DTD/sodipodi-0.dtd"
   xmlns:inkscape="http://www.inkscape.org/namespaces/inkscape"
   width="200"
   height="200"
   viewBox="0 0 52.916665 52.916668"
   version="1.1"
   id="svg8"
   inkscape:version="1.0.2 (e86c8708, 2021-01-15)"
   sodipodi:docname="HT_logo.svg">
  <defs
     id="defs2">
    <rect
       x="84.666667"
       y="141.81667"
       width="256.11667"
       height="33.3375"
       id="rect83" />
    <rect
       x="-120.12083"
       y="200.02499"
       width="137.58333"
       height="25.929167"
       id="rect1017" />
    <rect
       x="-81.491669"
       y="193.675"
       width="306.91666"
       height="25.4"
       id="rect991" />
    <rect
       x="79.375"
       y="166.15833"
       width="252.94167"
       height="15.345833"
       id="rect985" />
    <rect
       x="87.3125"
       y="165.62917"
       width="255.58749"
       height="19.579166"
       id="rect973" />
    <rect
       x="59.795834"
       y="220.13333"
       width="291.04169"
       height="19.049999"
       id="rect914" />
    <rect
       x="343.95834"
       y="171.45"
       width="283.63333"
       height="122.2375"
       id="rect958" />
    <rect
       x="171.45"
       y="157.69167"
       width="92.604164"
       height="36.512501"
       id="rect952" />
    <rect
       x="179.91667"
       y="104.24583"
       width="59.266666"
       height="13.758334"
       id="rect946" />
    <clipPath
       clipPathUnits="userSpaceOnUse"
       id="clipPath955">
      <path
         style="fill:#463593;fill-opacity:0.645161;stroke:none;stroke-width:0.264583px;stroke-linecap:butt;stroke-linejoin:miter;stroke-opacity:1"
         d="M 105.00003,315.45814 V 48.710199 L 235.17647,192.08996 152.73975,323.24749 Z"
         id="path957" />
    </clipPath>
    <clipPath
       clipPathUnits="userSpaceOnUse"
       id="clipPath1817">
      <path
         id="path1819"
         style="fill:#2d8e6b;fill-opacity:1;stroke-width:13.2292;stroke-linecap:round;stroke-linejoin:round"
         d="m 104.98177,54.084154 a 34.896245,34.896245 0 0 0 -24.657061,10.220783 34.896245,34.896245 0 0 0 0,49.350923 34.896245,34.896245 0 0 0 49.350581,0 34.896245,34.896245 0 0 0 0,-49.350923 34.896245,34.896245 0 0 0 -24.69352,-10.220783 z m -0.003,17.821958 a 17.572753,17.074233 0 0 1 0.0208,0 17.572753,17.074233 0 0 1 17.57285,17.074287 A 17.572753,17.074233 0 0 1 104.9999,106.05468 17.572753,17.074233 0 0 1 87.427398,88.980399 17.572753,17.074233 0 0 1 104.97912,71.906112 Z m 24.69652,41.749748 a 34.896245,34.896245 0 0 1 -0.14721,0.1462 34.896245,34.896245 0 0 1 -0.1479,0.14551 34.896245,34.896245 0 0 1 -0.14893,0.14449 34.896245,34.896245 0 0 1 -0.1496,0.14347 34.896245,34.896245 0 0 1 -0.15063,0.14279 34.896245,34.896245 0 0 1 -0.15165,0.14177 34.896245,34.896245 0 0 1 -0.15199,0.14108 34.896245,34.896245 0 0 1 -0.15335,0.14006 34.896245,34.896245 0 0 1 -0.15403,0.13904 34.896245,34.896245 0 0 1 -0.15472,0.13836 34.896245,34.896245 0 0 1 -0.1554,0.13734 34.896245,34.896245 0 0 1 -0.15641,0.13631 34.896245,34.896245 0 0 1 -0.15745,0.13529 34.896245,34.896245 0 0 1 -0.15778,0.13461 34.896245,34.896245 0 0 1 -0.15881,0.13325 34.896245,34.896245 0 0 1 -0.15982,0.1329 34.896245,34.896245 0 0 1 -0.16017,0.13155 34.896245,34.896245 0 0 1 -0.16119,0.13052 34.896245,34.896245 0 0 1 -0.16187,0.12984 34.896245,34.896245 0 0 1 -0.1629,0.12881 34.896245,34.896245 0 0 1 -0.16323,0.1278 34.896245,34.896245 0 0 1 -0.16426,0.12677 34.896245,34.896245 0 0 1 -0.16494,0.12575 34.896245,34.896245 0 0 1 -0.16596,0.12506 34.896245,34.896245 0 0 1 -0.1663,0.12371 34.896245,34.896245 0 0 1 -0.16733,0.12302 34.896245,34.896245 0 0 1 -0.16801,0.12166 34.896245,34.896245 0 0 1 -0.16868,0.12098 34.896245,34.896245 0 0 1 -0.16937,0.11996 34.896245,34.896245 0 0 1 -0.17005,0.11893 34.896245,34.896245 0 0 1 -0.17074,0.11757 34.896245,34.896245 0 0 1 -0.17141,0.11689 34.896245,34.896245 0 0 1 -0.1721,0.11586 34.896245,34.896245 0 0 1 -0.17277,0.11485 34.896245,34.896245 0 0 1 -0.1738,0.11382 34.896245,34.896245 0 0 1 -0.17414,0.1128 34.896245,34.896245 0 0 1 -0.17483,0.11144 34.896245,34.896245 0 0 1 -0.1755,0.11075 34.896245,34.896245 0 0 1 -0.17618,0.10973 34.896245,34.896245 0 0 1 -0.17687,0.10837 34.896245,34.896245 0 0 1 -0.17755,0.10735 34.896245,34.896245 0 0 1 -0.17789,0.10666 34.896245,34.896245 0 0 1 -0.17891,0.10531 34.896245,34.896245 0 0 1 -0.17925,0.10428 34.896245,34.896245 0 0 1 -0.17994,0.10325 34.896245,34.896245 0 0 1 -0.18061,0.10224 34.896245,34.896245 0 0 1 -0.1813,0.10121 34.896245,34.896245 0 0 1 -0.18164,0.0999 34.896245,34.896245 0 0 1 -0.18266,0.0988 34.896245,34.896245 0 0 1 -0.183,0.0981 34.896245,34.896245 0 0 1 -0.18334,0.0965 34.896245,34.896245 0 0 1 -0.18436,0.0958 34.896245,34.896245 0 0 1 -0.18437,0.0947 34.896245,34.896245 0 0 1 -0.18538,0.0934 34.896245,34.896245 0 0 1 -0.18573,0.0923 34.896245,34.896245 0 0 1 -0.18641,0.0913 34.896245,34.896245 0 0 1 -0.18709,0.09 34.896245,34.896245 0 0 1 -0.18709,0.0893 34.896245,34.896245 0 0 1 -0.18811,0.0879 34.896245,34.896245 0 0 1 -0.18846,0.0866 34.896245,34.896245 0 0 1 -0.18913,0.0859 34.896245,34.896245 0 0 1 -0.18948,0.0845 34.896245,34.896245 0 0 1 -0.18981,0.0835 34.896245,34.896245 0 0 1 -0.1905,0.0821 34.896245,34.896245 0 0 1 -0.19084,0.0811 34.896245,34.896245 0 0 1 -0.19152,0.0801 34.896245,34.896245 0 0 1 -0.19186,0.0791 34.896245,34.896245 0 0 1 -0.19254,0.0777 34.896245,34.896245 0 0 1 -0.19289,0.0763 34.896245,34.896245 0 0 1 -0.19322,0.0757 34.896245,34.896245 0 0 1 -0.19357,0.0743 34.896245,34.896245 0 0 1 -0.19424,0.0733 34.896245,34.896245 0 0 1 -0.19459,0.0719 34.896245,34.896245 0 0 1 -0.19527,0.0709 34.896245,34.896245 0 0 1 -0.19527,0.0695 34.896245,34.896245 0 0 1 -0.19595,0.0685 34.896245,34.896245 0 0 1 -0.19629,0.0675 34.896245,34.896245 0 0 1 -0.19663,0.0661 34.896245,34.896245 0 0 1 -0.19698,0.0651 34.896245,34.896245 0 0 1 -0.19731,0.0637 34.896245,34.896245 0 0 1 -0.19799,0.0627 34.896245,34.896245 0 0 1 -0.198,0.0613 34.896245,34.896245 0 0 1 -0.19868,0.0603 34.896245,34.896245 0 0 1 -0.19901,0.0593 34.896245,34.896245 0 0 1 -0.19902,0.0579 34.896245,34.896245 0 0 1 -0.1997,0.0566 34.896245,34.896245 0 0 1 -0.20004,0.0555 34.896245,34.896245 0 0 1 -0.20004,0.0545 34.896245,34.896245 0 0 1 -0.20072,0.0532 34.896245,34.896245 0 0 1 -0.20072,0.0518 34.896245,34.896245 0 0 1 -0.20107,0.0508 34.896245,34.896245 0 0 1 -0.20174,0.0498 34.896245,34.896245 0 0 1 -0.20174,0.0484 34.896245,34.896245 0 0 1 -0.20209,0.047 34.896245,34.896245 0 0 1 -0.20208,0.046 34.896245,34.896245 0 0 1 -0.20277,0.045 34.896245,34.896245 0 0 1 -0.20277,0.0436 34.896245,34.896245 0 0 1 -0.2031,0.0423 34.896245,34.896245 0 0 1 -0.20345,0.0412 34.896245,34.896245 0 0 1 -0.20379,0.0399 34.896245,34.896245 0 0 1 -0.20379,0.0388 34.896245,34.896245 0 0 1 -0.20413,0.0375 34.896245,34.896245 0 0 1 -0.20413,0.0361 34.896245,34.896245 0 0 1 -0.20447,0.0351 34.896245,34.896245 0 0 1 -0.20481,0.0341 34.896245,34.896245 0 0 1 -0.20481,0.0327 34.896245,34.896245 0 0 1 -0.20515,0.0314 34.896245,34.896245 0 0 1 -0.20515,0.0303 34.896245,34.896245 0 0 1 -0.2055,0.029 34.896245,34.896245 0 0 1 -0.20583,0.0276 34.896245,34.896245 0 0 1 -0.20549,0.0266 34.896245,34.896245 0 0 1 -0.20618,0.0252 34.896245,34.896245 0 0 1 -0.20617,0.0242 34.896245,34.896245 0 0 1 -0.20617,0.0228 34.896245,34.896245 0 0 1 -0.20618,0.0218 34.896245,34.896245 0 0 1 -0.20651,0.0205 34.896245,34.896245 0 0 1 -0.20652,0.0191 34.896245,34.896245 0 0 1 -0.20685,0.0181 34.896245,34.896245 0 0 1 -0.20686,0.0167 34.896245,34.896245 0 0 1 -0.20686,0.0157 34.896245,34.896245 0 0 1 -0.20685,0.0143 34.896245,34.896245 0 0 1 -0.2072,0.0129 34.896245,34.896245 0 0 1 -0.20719,0.0119 34.896245,34.896245 0 0 1 -0.2072,0.0106 34.896245,34.896245 0 0 1 -0.2072,0.009 34.896245,34.896245 0 0 1 -0.20753,0.008 34.896245,34.896245 0 0 1 -0.2072,0.007 34.896245,34.896245 0 0 1 -0.20754,0.006 34.896245,34.896245 0 0 1 -0.20754,0.004 34.896245,34.896245 0 0 1 -0.20719,0.003 34.896245,34.896245 0 0 1 -0.20754,0.002 34.896245,34.896245 0 0 1 -0.20754,7.9e-4 34.896245,34.896245 0 0 1 -0.20753,-2.6e-4 34.896245,34.896245 0 0 1 -0.20754,-0.002 34.896245,34.896245 0 0 1 -0.20754,-0.003 34.896245,34.896245 0 0 1 -0.20719,-0.004 34.896245,34.896245 0 0 1 -0.20754,-0.005 34.896245,34.896245 0 0 1 -0.20754,-0.006 34.896245,34.896245 0 0 1 -0.2072,-0.008 34.896245,34.896245 0 0 1 -0.20719,-0.009 34.896245,34.896245 0 0 1 -0.20754,-0.0106 34.896245,34.896245 0 0 1 -0.20685,-0.0116 34.896245,34.896245 0 0 1 -0.2072,-0.0126 34.896245,34.896245 0 0 1 -0.2072,-0.0143 34.896245,34.896245 0 0 1 -0.20685,-0.0153 34.896245,34.896245 0 0 1 -0.20686,-0.0163 34.896245,34.896245 0 0 1 -0.20651,-0.0177 34.896245,34.896245 0 0 1 -0.20686,-0.0191 34.896245,34.896245 0 0 1 -0.20651,-0.0201 34.896245,34.896245 0 0 1 -0.20618,-0.0215 34.896245,34.896245 0 0 1 -0.20651,-0.0228 34.896245,34.896245 0 0 1 -0.20584,-0.0238 34.896245,34.896245 0 0 1 -0.20617,-0.0252 34.896245,34.896245 0 0 1 -0.20583,-0.0262 34.896245,34.896245 0 0 1 -0.2055,-0.0276 34.896245,34.896245 0 0 1 -0.20549,-0.0286 34.896245,34.896245 0 0 1 -0.20549,-0.03 34.896245,34.896245 0 0 1 -0.20515,-0.0314 34.896245,34.896245 0 0 1 -0.204808,-0.0324 34.896245,34.896245 0 0 1 -0.204819,-0.0337 34.896245,34.896245 0 0 1 -0.20447,-0.0348 34.896245,34.896245 0 0 1 -0.20447,-0.0361 34.896245,34.896245 0 0 1 -0.203783,-0.0375 34.896245,34.896245 0 0 1 -0.204128,-0.0385 34.896245,34.896245 0 0 1 -0.203452,-0.0399 34.896245,34.896245 0 0 1 -0.203448,-0.0409 34.896245,34.896245 0 0 1 -0.20311,-0.0419 34.896245,34.896245 0 0 1 -0.2031,-0.0436 34.896245,34.896245 0 0 1 -0.202771,-0.0443 34.896245,34.896245 0 0 1 -0.202084,-0.046 34.896245,34.896245 0 0 1 -0.202083,-0.047 34.896245,34.896245 0 0 1 -0.202086,-0.0481 34.896245,34.896245 0 0 1 -0.201404,-0.0494 34.896245,34.896245 0 0 1 -0.201403,-0.0504 34.896245,34.896245 0 0 1 -0.200721,-0.0518 34.896245,34.896245 0 0 1 -0.200724,-0.0532 34.896245,34.896245 0 0 1 -0.200376,-0.0542 34.896245,34.896245 0 0 1 -0.199703,-0.0552 34.896245,34.896245 0 0 1 -0.199699,-0.0566 34.896245,34.896245 0 0 1 -0.199358,-0.0576 34.896245,34.896245 0 0 1 -0.199017,-0.059 34.896245,34.896245 0 0 1 -0.198676,-0.0603 34.896245,34.896245 0 0 1 -0.197996,-0.061 34.896245,34.896245 0 0 1 -0.197995,-0.0627 34.896245,34.896245 0 0 1 -0.197655,-0.0634 34.896245,34.896245 0 0 1 -0.196971,-0.0648 34.896245,34.896245 0 0 1 -0.196633,-0.0661 34.896245,34.896245 0 0 1 -0.196292,-0.0671 34.896245,34.896245 0 0 1 -0.195951,-0.0682 34.896245,34.896245 0 0 1 -0.195611,-0.0695 34.896245,34.896245 0 0 1 -0.195268,-0.0709 34.896245,34.896245 0 0 1 -0.194588,-0.0716 34.896245,34.896245 0 0 1 -0.194246,-0.0729 34.896245,34.896245 0 0 1 -0.193906,-0.0743 34.896245,34.896245 0 0 1 -0.193222,-0.075 34.896245,34.896245 0 0 1 -0.192887,-0.0767 34.896245,34.896245 0 0 1 -0.192542,-0.0774 34.896245,34.896245 0 0 1 -0.19186,-0.0787 34.896245,34.896245 0 0 1 -0.191522,-0.0798 34.896245,34.896245 0 0 1 -0.191179,-0.0811 34.896245,34.896245 0 0 1 -0.190498,-0.0821 34.896245,34.896245 0 0 1 -0.190159,-0.0832 34.896245,34.896245 0 0 1 -0.189473,-0.0845 34.896245,34.896245 0 0 1 -0.189137,-0.0852 34.896245,34.896245 0 0 1 -0.188452,-0.0869 34.896245,34.896245 0 0 1 -0.188111,-0.0876 34.896245,34.896245 0 0 1 -0.187431,-0.0889 34.896245,34.896245 0 0 1 -0.187092,-0.09 34.896245,34.896245 0 0 1 -0.186407,-0.091 34.896245,34.896245 0 0 1 -0.186068,-0.092 34.896245,34.896245 0 0 1 -0.185047,-0.0934 34.896245,34.896245 0 0 1 -0.185045,-0.0944 34.896245,34.896245 0 0 1 -0.184023,-0.0954 34.896245,34.896245 0 0 1 -0.183684,-0.0964 34.896245,34.896245 0 0 1 -0.182999,-0.0978 34.896245,34.896245 0 0 1 -0.18266,-0.0988 34.896245,34.896245 0 0 1 -0.181978,-0.0999 34.896245,34.896245 0 0 1 -0.181298,-0.10088 34.896245,34.896245 0 0 1 -0.180615,-0.10189 34.896245,34.896245 0 0 1 -0.180277,-0.10292 34.896245,34.896245 0 0 1 -0.17925,-0.10428 34.896245,34.896245 0 0 1 -0.178911,-0.1053 34.896245,34.896245 0 0 1 -0.178231,-0.10598 34.896245,34.896245 0 0 1 -0.177549,-0.10735 34.896245,34.896245 0 0 1 -0.176866,-0.10837 34.896245,34.896245 0 0 1 -0.176527,-0.10939 34.896245,34.896245 0 0 1 -0.175504,-0.11075 34.896245,34.896245 0 0 1 -0.175162,-0.11144 34.896245,34.896245 0 0 1 -0.17414,-0.11246 34.896245,34.896245 0 0 1 -0.173797,-0.11348 34.896245,34.896245 0 0 1 -0.172779,-0.11484 34.896245,34.896245 0 0 1 -0.172436,-0.11553 34.896245,34.896245 0 0 1 -0.171413,-0.11655 34.896245,34.896245 0 0 1 -0.171075,-0.11791 34.896245,34.896245 0 0 1 -0.170053,-0.11859 34.896245,34.896245 0 0 1 -0.169709,-0.11962 34.896245,34.896245 0 0 1 -0.168687,-0.12063 34.896245,34.896245 0 0 1 -0.168006,-0.12166 34.896245,34.896245 0 0 1 -0.167327,-0.12268 34.896245,34.896245 0 0 1 -0.166643,-0.12371 34.896245,34.896245 0 0 1 -0.165962,-0.12473 34.896245,34.896245 0 0 1 -0.164936,-0.12574 34.896245,34.896245 0 0 1 -0.164262,-0.12678 34.896245,34.896245 0 0 1 -0.163576,-0.12745 34.896245,34.896245 0 0 1 -0.162893,-0.12848 34.896245,34.896245 0 0 1 -0.162213,-0.12983 34.896245,34.896245 0 0 1 -0.16119,-0.13052 34.896245,34.896245 0 0 1 -0.160509,-0.13121 34.896245,34.896245 0 0 1 -0.159827,-0.13256 34.896245,34.896245 0 0 1 -0.158806,-0.13325 34.896245,34.896245 0 0 1 -0.158464,-0.13461 34.896245,34.896245 0 0 1 -0.157102,-0.13495 34.896245,34.896245 0 0 1 -0.15676,-0.13631 34.896245,34.896245 0 0 1 -0.155739,-0.137 34.896245,34.896245 0 0 1 -0.154715,-0.13835 34.896245,34.896245 0 0 1 -0.154035,-0.1387 34.896245,34.896245 0 0 1 -0.153353,-0.14007 34.896245,34.896245 0 0 1 -0.152328,-0.14074 34.896245,34.896245 0 0 1 -0.151649,-0.14177 34.896245,34.896245 0 0 1 -0.150969,-0.14244 34.896245,34.896245 0 0 1 -0.149603,-0.14347 34.896245,34.896245 0 0 1 -0.149265,-0.14449 34.896245,34.896245 0 0 1 -0.14824,-0.14518 34.896245,34.896245 0 0 1 -0.147217,-0.1462 l 24.524149,24.52355 c 0.0695,0.0695 0.18162,0.0695 0.25116,0 z" />
    </clipPath>
    <clipPath
       clipPathUnits="userSpaceOnUse"
       id="clipPath3415">
      <path
         id="path3417"
         style="mix-blend-mode:darken;fill:#e5671f;fill-opacity:1;stroke:none;stroke-width:2.64582;stroke-linecap:round;stroke-linejoin:round;stroke-miterlimit:4;stroke-dasharray:none;stroke-opacity:1;paint-order:stroke fill markers"
         inkscape:transform-center-y="-2.5287537e-06"
         d="M 43.534721,201.25893 10.854125,182.39078 v -37.7363 l 32.680594,-18.86815 32.680596,18.86815 v 37.7363 z" />
    </clipPath>
    <clipPath
       clipPathUnits="userSpaceOnUse"
       id="clipPath3430">
      <path
         id="path3432"
         style="opacity:1;fill:#f7c960;fill-opacity:1;stroke:none;stroke-width:13.2292;stroke-linecap:round;stroke-linejoin:round;stroke-opacity:1"
         d="M 210.83334,130.95293 A 105.83334,105.83334 0 0 1 105,236.78627 105.83334,105.83334 0 0 1 -0.83334352,130.95293 105.83334,105.83334 0 0 1 105,25.119583 105.83334,105.83334 0 0 1 210.83334,130.95293 Z" />
    </clipPath>
  </defs>
  <sodipodi:namedview
     id="base"
     pagecolor="#ffffff"
     bordercolor="#666666"
     borderopacity="1.0"
     inkscape:pageopacity="0.0"
     inkscape:pageshadow="2"
     inkscape:zoom="0.33341794"
     inkscape:cx="400"
     inkscape:cy="200.09135"
     inkscape:document-units="px"
     inkscape:current-layer="layer1"
     inkscape:document-rotation="0"
     showgrid="false"
     units="px"
     inkscape:window-width="1440"
     inkscape:window-height="751"
     inkscape:window-x="0"
     inkscape:window-y="25"
     inkscape:window-maximized="0" />
  <metadata
     id="metadata5">
    <rdf:RDF>
      <cc:Work
         rdf:about="">
        <dc:format>image/svg+xml</dc:format>
        <dc:type
           rdf:resource="http://purl.org/dc/dcmitype/StillImage" />
        <dc:title></dc:title>
      </cc:Work>
    </rdf:RDF>
  </metadata>
  <g
     inkscape:label="Layer 1"
     inkscape:groupmode="layer"
     id="layer1">
    <g
       id="g3162"
       transform="matrix(0.56471424,0,0,0.56471424,-31.673187,-36.13513)"
       style="stroke-width:1.77081">
      <path
         id="path924"
         style="fill:#bcc64d;fill-opacity:1;stroke:none;stroke-width:3.86118;stroke-linecap:round;stroke-linejoin:round;stroke-miterlimit:4;stroke-dasharray:none;stroke-opacity:1"
         d="m 102.92653,64.457047 a 25.070249,25.070249 0 0 0 -17.714161,7.342704 25.070249,25.070249 0 0 0 0,35.455199 25.070249,25.070249 0 0 0 17.095601,7.33495 25.070249,25.070249 0 0 1 -0.10026,-0.002 25.070249,25.070249 0 0 1 -0.14882,-0.004 25.070249,25.070249 0 0 1 -0.14883,-0.006 25.070249,25.070249 0 0 1 -0.14935,-0.007 25.070249,25.070249 0 0 1 -0.14883,-0.007 25.070249,25.070249 0 0 1 -0.14882,-0.008 25.070249,25.070249 0 0 1 -0.14883,-0.009 25.070249,25.070249 0 0 1 -0.14883,-0.0103 25.070249,25.070249 0 0 1 -0.14831,-0.0109 25.070249,25.070249 0 0 1 -0.14883,-0.0119 25.070249,25.070249 0 0 1 -0.14831,-0.0124 25.070249,25.070249 0 0 1 -0.14883,-0.0139 25.070249,25.070249 0 0 1 -0.14831,-0.0145 25.070249,25.070249 0 0 1 -0.14779,-0.0155 25.070249,25.070249 0 0 1 -0.14832,-0.016 25.070249,25.070249 0 0 1 -0.148309,-0.0171 25.070249,25.070249 0 0 1 -0.147793,-0.0181 25.070249,25.070249 0 0 1 -0.147794,-0.0191 25.070249,25.070249 0 0 1 -0.147796,-0.0196 25.070249,25.070249 0 0 1 -0.147794,-0.0207 25.070249,25.070249 0 0 1 -0.147277,-0.0217 25.070249,25.070249 0 0 1 -0.147797,-0.0222 25.070249,25.070249 0 0 1 -0.146759,-0.0233 25.070249,25.070249 0 0 1 -0.147277,-0.0243 25.070249,25.070249 0 0 1 -0.146762,-0.0253 25.070249,25.070249 0 0 1 -0.147278,-0.0259 25.070249,25.070249 0 0 1 -0.146246,-0.0269 25.070249,25.070249 0 0 1 -0.146759,-0.0279 25.070249,25.070249 0 0 1 -0.146245,-0.0284 25.070249,25.070249 0 0 1 -0.145728,-0.0295 25.070249,25.070249 0 0 1 -0.146243,-0.03 25.070249,25.070249 0 0 1 -0.145727,-0.0315 25.070249,25.070249 0 0 1 -0.14573,-0.0315 25.070249,25.070249 0 0 1 -0.145208,-0.0331 25.070249,25.070249 0 0 1 -0.145212,-0.0341 25.070249,25.070249 0 0 1 -0.145211,-0.0341 25.070249,25.070249 0 0 1 -0.144695,-0.0357 25.070249,25.070249 0 0 1 -0.144693,-0.0362 25.070249,25.070249 0 0 1 -0.144177,-0.0372 25.070249,25.070249 0 0 1 -0.144177,-0.0382 25.070249,25.070249 0 0 1 -0.14366,-0.0393 25.070249,25.070249 0 0 1 -0.143661,-0.0393 25.070249,25.070249 0 0 1 -0.143661,-0.0408 25.070249,25.070249 0 0 1 -0.143145,-0.0413 25.070249,25.070249 0 0 1 -0.143142,-0.0424 25.070249,25.070249 0 0 1 -0.142626,-0.0434 25.070249,25.070249 0 0 1 -0.142111,-0.0439 25.070249,25.070249 0 0 1 -0.14211,-0.045 25.070249,25.070249 0 0 1 -0.14211,-0.0455 25.070249,25.070249 0 0 1 -0.141595,-0.0465 25.070249,25.070249 0 0 1 -0.141076,-0.0476 25.070249,25.070249 0 0 1 -0.141078,-0.0486 25.070249,25.070249 0 0 1 -0.141076,-0.0486 25.070249,25.070249 0 0 1 -0.14056,-0.0501 25.070249,25.070249 0 0 1 -0.140041,-0.0511 25.070249,25.070249 0 0 1 -0.140044,-0.0512 25.070249,25.070249 0 0 1 -0.139528,-0.0522 25.070249,25.070249 0 0 1 -0.13901,-0.0537 25.070249,25.070249 0 0 1 -0.139009,-0.0537 25.070249,25.070249 0 0 1 -0.138491,-0.0553 25.070249,25.070249 0 0 1 -0.138493,-0.0553 25.070249,25.070249 0 0 1 -0.137459,-0.0568 25.070249,25.070249 0 0 1 -0.137978,-0.0574 25.070249,25.070249 0 0 1 -0.136943,-0.0579 25.070249,25.070249 0 0 1 -0.13694,-0.0594 25.070249,25.070249 0 0 1 -0.136943,-0.0594 25.070249,25.070249 0 0 1 -0.135909,-0.061 25.070249,25.070249 0 0 1 -0.135911,-0.061 25.070249,25.070249 0 0 1 -0.13539,-0.0625 25.070249,25.070249 0 0 1 -0.134877,-0.063 25.070249,25.070249 0 0 1 -0.134876,-0.0641 25.070249,25.070249 0 0 1 -0.134358,-0.0646 25.070249,25.070249 0 0 1 -0.133842,-0.0656 25.070249,25.070249 0 0 1 -0.133843,-0.0656 25.070249,25.070249 0 0 1 -0.132807,-0.0672 25.070249,25.070249 0 0 1 -0.132808,-0.0677 25.070249,25.070249 0 0 1 -0.132291,-0.0687 25.070249,25.070249 0 0 1 -0.132292,-0.0692 25.070249,25.070249 0 0 1 -0.13126,-0.0703 25.070249,25.070249 0 0 1 -0.131257,-0.0713 25.070249,25.070249 0 0 1 -0.130741,-0.0718 25.070249,25.070249 0 0 1 -0.130226,-0.0724 25.070249,25.070249 0 0 1 -0.129706,-0.0729 25.070249,25.070249 0 0 1 -0.12971,-0.0739 25.070249,25.070249 0 0 1 -0.128674,-0.0749 25.070249,25.070249 0 0 1 -0.128673,-0.076 25.070249,25.070249 0 0 1 -0.127642,-0.076 25.070249,25.070249 0 0 1 -0.127641,-0.077 25.070249,25.070249 0 0 1 -0.127124,-0.078 25.070249,25.070249 0 0 1 -0.127122,-0.0785 25.070249,25.070249 0 0 1 -0.126092,-0.0796 25.070249,25.070249 0 0 1 -0.125574,-0.0801 25.070249,25.070249 0 0 1 -0.125056,-0.0806 25.070249,25.070249 0 0 1 -0.125057,-0.0816 25.070249,25.070249 0 0 1 -0.124024,-0.0822 25.070249,25.070249 0 0 1 -0.124023,-0.0832 25.070249,25.070249 0 0 1 -0.122989,-0.0837 25.070249,25.070249 0 0 1 -0.122992,-0.0848 25.070249,25.070249 0 0 1 -0.121954,-0.0853 25.070249,25.070249 0 0 1 -0.121957,-0.0858 25.070249,25.070249 0 0 1 -0.121441,-0.0868 25.070249,25.070249 0 0 1 -0.120404,-0.0873 25.070249,25.070249 0 0 1 -0.120407,-0.0879 25.070249,25.070249 0 0 1 -0.119891,-0.0889 25.070249,25.070249 0 0 1 -0.118856,-0.0899 25.070249,25.070249 0 0 1 -0.118856,-0.0904 25.070249,25.070249 0 0 1 -0.117821,-0.091 25.070249,25.070249 0 0 1 -0.117306,-0.0915 25.070249,25.070249 0 0 1 -0.117306,-0.0925 25.070249,25.070249 0 0 1 -0.116271,-0.093 25.070249,25.070249 0 0 1 -0.115755,-0.094 25.070249,25.070249 0 0 1 -0.115755,-0.0941 25.070249,25.070249 0 0 1 -0.114721,-0.0951 25.070249,25.070249 0 0 1 -0.114205,-0.0961 25.070249,25.070249 0 0 1 -0.113689,-0.0966 25.070249,25.070249 0 0 1 -0.112654,-0.0966 25.070249,25.070249 0 0 1 -0.112654,-0.0982 25.070249,25.070249 0 0 1 -0.112138,-0.0982 25.070249,25.070249 0 0 1 -0.111104,-0.0992 25.070249,25.070249 0 0 1 -0.110588,-0.0997 25.070249,25.070249 0 0 1 -0.110072,-0.10076 25.070249,25.070249 0 0 1 -0.109553,-0.10129 25.070249,25.070249 0 0 1 -0.109038,-0.1018 25.070249,25.070249 0 0 1 -0.108521,-0.10232 25.070249,25.070249 0 0 1 -0.107487,-0.10284 25.070249,25.070249 0 0 1 -0.106969,-0.10387 25.070249,25.070249 0 0 1 -0.106455,-0.10438 25.070249,25.070249 0 0 1 -0.105936,-0.10491 l 17.618568,17.61805 c 0.0499,0.0499 0.13091,0.0499 0.18086,0 l 17.63665,-17.6382 a 25.070249,25.070249 0 0 0 0,-35.455201 25.070249,25.070249 0 0 0 -17.74052,-7.342703 z m -0.006,12.80387 a 12.624662,12.266514 0 0 1 0.004,0 12.624662,12.266514 0 0 1 0.015,0 A 12.624662,12.266514 0 0 1 115.5646,89.52735 12.624662,12.266514 0 0 1 102.93953,101.79378 12.624662,12.266514 0 0 1 90.314893,89.52735 12.624662,12.266514 0 0 1 102.92032,77.260917 Z M 120.228,107.68335 a 25.070249,25.070249 0 0 1 -0.0951,0.0904 25.070249,25.070249 0 0 1 -0.061,0.0568 25.070249,25.070249 0 0 0 0.15606,-0.14728 z m -0.64544,0.59376 a 25.070249,25.070249 0 0 1 -0.11162,0.0987 25.070249,25.070249 0 0 1 -0.0429,0.0372 25.070249,25.070249 0 0 1 -0.0692,0.0605 25.070249,25.070249 0 0 1 -0.0946,0.0811 25.070249,25.070249 0 0 0 0.16381,-0.14159 25.070249,25.070249 0 0 0 0.15451,-0.13591 z m -0.67954,0.58136 a 25.070249,25.070249 0 0 1 -0.11472,0.0946 25.070249,25.070249 0 0 1 -0.0227,0.0181 25.070249,25.070249 0 0 1 -0.093,0.076 25.070249,25.070249 0 0 1 -0.0755,0.06 25.070249,25.070249 0 0 1 -0.0408,0.0331 25.070249,25.070249 0 0 1 -0.0816,0.0646 25.070249,25.070249 0 0 0 0.12247,-0.0977 25.070249,25.070249 0 0 0 0.16847,-0.13591 25.070249,25.070249 0 0 0 0.13746,-0.11266 z m -0.83561,0.66094 a 25.070249,25.070249 0 0 1 -0.10128,0.0765 25.070249,25.070249 0 0 1 -0.11938,0.0889 25.070249,25.070249 0 0 1 -0.10955,0.0801 25.070249,25.070249 0 0 0 0.33021,-0.24547 z m -0.8599,0.62219 a 25.070249,25.070249 0 0 1 -0.0894,0.062 25.070249,25.070249 0 0 1 -0.0656,0.0444 25.070249,25.070249 0 0 0 0.15503,-0.10645 z m -0.35811,0.24339 a 25.070249,25.070249 0 0 1 -0.10232,0.0682 25.070249,25.070249 0 0 1 -0.0785,0.0512 25.070249,25.070249 0 0 0 0.18087,-0.11938 z m -1.09916,0.69247 a 25.070249,25.070249 0 0 1 -0.0139,0.009 25.070249,25.070249 0 0 1 -0.12868,0.0754 25.070249,25.070249 0 0 0 0.14263,-0.0842 z m -1.32602,0.73484 a 25.070249,25.070249 0 0 1 -0.12403,0.0641 25.070249,25.070249 0 0 1 -0.0687,0.0346 25.070249,25.070249 0 0 0 0.19275,-0.0987 z m -2.09754,0.96169 a 25.070249,25.070249 0 0 1 -0.0625,0.0253 25.070249,25.070249 0 0 1 -0.1385,0.0548 25.070249,25.070249 0 0 0 0.20103,-0.0801 z m -1.69809,0.61547 a 25.070249,25.070249 0 0 1 -0.0475,0.0155 25.070249,25.070249 0 0 1 -0.14211,0.045 25.070249,25.070249 0 0 0 0.18965,-0.0605 z m -0.41341,0.12919 a 25.070249,25.070249 0 0 1 -0.061,0.0186 25.070249,25.070249 0 0 1 -0.11059,0.0326 25.070249,25.070249 0 0 0 0.17157,-0.0512 z m -0.23513,0.0698 a 25.070249,25.070249 0 0 1 -0.11214,0.0331 25.070249,25.070249 0 0 1 -0.0682,0.0191 25.070249,25.070249 0 0 0 0.18035,-0.0522 z m -0.25528,0.0734 a 25.070249,25.070249 0 0 1 -0.14366,0.0403 25.070249,25.070249 0 0 1 -0.14366,0.0393 25.070249,25.070249 0 0 1 -0.0553,0.0145 25.070249,25.070249 0 0 0 0.34262,-0.094 z m -0.76223,0.20154 a 25.070249,25.070249 0 0 1 -0.10335,0.0258 25.070249,25.070249 0 0 1 -0.10697,0.0253 25.070249,25.070249 0 0 1 -0.0377,0.009 25.070249,25.070249 0 0 1 -0.10697,0.0248 25.070249,25.070249 0 0 0 0.1447,-0.0341 25.070249,25.070249 0 0 0 0.21032,-0.0512 z m -0.61805,0.1447 a 25.070249,25.070249 0 0 1 -0.0662,0.015 25.070249,25.070249 0 0 1 -0.14572,0.031 25.070249,25.070249 0 0 0 0.21187,-0.046 z m -0.65061,0.13487 a 25.070249,25.070249 0 0 1 -0.14624,0.0279 25.070249,25.070249 0 0 1 -0.14624,0.0269 25.070249,25.070249 0 0 1 -0.0966,0.0171 25.070249,25.070249 0 0 0 0.38912,-0.0718 z m -0.47955,0.0873 a 25.070249,25.070249 0 0 1 -0.10646,0.0186 25.070249,25.070249 0 0 1 -0.0537,0.009 25.070249,25.070249 0 0 1 -0.0935,0.0155 25.070249,25.070249 0 0 1 -0.14728,0.0238 25.070249,25.070249 0 0 1 -0.14728,0.0227 25.070249,25.070249 0 0 1 -0.0398,0.006 25.070249,25.070249 0 0 1 -0.10749,0.016 25.070249,25.070249 0 0 1 -0.1018,0.0145 25.070249,25.070249 0 0 0 0.20929,-0.0305 25.070249,25.070249 0 0 0 0.42788,-0.0677 25.070249,25.070249 0 0 0 0.1602,-0.0274 z m -0.84336,0.13177 a 25.070249,25.070249 0 0 1 -0.1478,0.0202 25.070249,25.070249 0 0 1 -0.0259,0.003 25.070249,25.070249 0 0 1 -0.12195,0.016 25.070249,25.070249 0 0 1 -0.093,0.0114 25.070249,25.070249 0 0 0 0.21497,-0.0274 25.070249,25.070249 0 0 0 0.17364,-0.0233 z m -0.81907,0.0992 a 25.070249,25.070249 0 0 1 -0.0687,0.007 25.070249,25.070249 0 0 1 -0.14832,0.015 25.070249,25.070249 0 0 1 -0.14831,0.0139 25.070249,25.070249 0 0 1 -0.14882,0.0129 25.070249,25.070249 0 0 1 -0.13281,0.0104 25.070249,25.070249 0 0 1 -0.016,0.002 25.070249,25.070249 0 0 1 -0.14831,0.0114 25.070249,25.070249 0 0 1 -0.14883,0.0104 25.070249,25.070249 0 0 1 -0.14883,0.009 25.070249,25.070249 0 0 1 -0.14883,0.009 25.070249,25.070249 0 0 1 -0.14883,0.007 25.070249,25.070249 0 0 0 0.75965,-0.0481 25.070249,25.070249 0 0 0 0.64699,-0.0594 z m -1.46193,0.11007 a 25.070249,25.070249 0 0 1 -0.0935,0.005 25.070249,25.070249 0 0 1 -0.14883,0.006 25.070249,25.070249 0 0 1 -0.14935,0.005 25.070249,25.070249 0 0 1 -0.14883,0.004 25.070249,25.070249 0 0 1 -0.10645,0.002 25.070249,25.070249 0 0 0 0.64699,-0.0212 z" />
      <path
         id="path926"
         style="fill:#82af5e;fill-opacity:1;stroke:none;stroke-width:0.386118px;stroke-linecap:butt;stroke-linejoin:miter;stroke-opacity:1"
         d="m 79.140904,116.55878 0.077,8.84028 v 7.95662 l -0.077,10.31358 8.385018,4.81883 -0.02997,-10.4097 7.383013,4.21163 0.03669,10.44743 7.985555,4.48758 0.0517,-18.2485 7.80366,-4.45968 -0.0517,18.27382 8.3075,-4.74493 v -18.23868 l 7.72615,-4.40748 -0.077,-8.8408 -7.64915,4.37854 v -0.002 l -0.16278,0.0946 -15.87138,9.08472 v -5.3e-4 l -8.099245,-4.81831 v 9.03821 l -7.405232,-4.22501 -0.02532,-8.73125 z" />
    </g>
  </g>
</svg>
